<svg xmlns="http://www.w3.org/2000/svg" viewBox="0 0 37 37" shape-rendering="crispEdges"><path fill="#4a1f25" d="M0 0h7v1h-7zM10 0h6v1h-6zM17 0h2v1h-2zM21 0h2v1h-2zM30 0h7v1h-7zM0 1h1v1h-1zM6 1h1v1h-1zM10 1h3v1h-3zM14 1h1v1h-1zM16 1h3v1h-3zM20 1h1v1h-1zM23 1h1v1h-1zM26 1h1v1h-1zM28 1h1v1h-1zM30 1h1v1h-1zM36 1h1v1h-1zM0 2h1v1h-1zM2 2h3v1h-3zM6 2h1v1h-1zM8 2h3v1h-3zM12 2h1v1h-1zM18 2h3v1h-3zM22 2h2v1h-2zM25 2h2v1h-2zM30 2h1v1h-1zM32 2h3v1h-3zM36 2h1v1h-1zM0 3h1v1h-1zM2 3h3v1h-3zM6 3h1v1h-1zM8 3h1v1h-1zM10 3h2v1h-2zM14 3h1v1h-1zM17 3h1v1h-1zM19 3h1v1h-1zM21 3h1v1h-1zM23 3h3v1h-3zM28 3h1v1h-1zM30 3h1v1h-1zM32 3h3v1h-3zM36 3h1v1h-1zM0 4h1v1h-1zM2 4h3v1h-3zM6 4h1v1h-1zM10 4h3v1h-3zM15 4h1v1h-1zM17 4h1v1h-1zM20 4h2v1h-2zM25 4h2v1h-2zM30 4h1v1h-1zM32 4h3v1h-3zM36 4h1v1h-1zM0 5h1v1h-1zM6 5h1v1h-1zM9 5h1v1h-1zM11 5h1v1h-1zM17 5h5v1h-5zM23 5h4v1h-4zM30 5h1v1h-1zM36 5h1v1h-1zM0 6h7v1h-7zM8 6h1v1h-1zM10 6h1v1h-1zM12 6h1v1h-1zM14 6h1v1h-1zM16 6h1v1h-1zM18 6h1v1h-1zM20 6h1v1h-1zM22 6h1v1h-1zM24 6h1v1h-1zM26 6h1v1h-1zM28 6h1v1h-1zM30 6h7v1h-7zM12 7h1v1h-1zM15 7h1v1h-1zM19 7h2v1h-2zM23 7h3v1h-3zM27 7h2v1h-2zM3 8h2v1h-2zM6 8h2v1h-2zM10 8h1v1h-1zM12 8h4v1h-4zM17 8h2v1h-2zM21 8h1v1h-1zM23 8h2v1h-2zM33 8h2v1h-2zM0 9h1v1h-1zM8 9h6v1h-6zM15 9h5v1h-5zM21 9h2v1h-2zM24 9h2v1h-2zM29 9h1v1h-1zM31 9h4v1h-4zM1 10h2v1h-2zM6 10h1v1h-1zM8 10h3v1h-3zM14 10h1v1h-1zM18 10h1v1h-1zM21 10h3v1h-3zM25 10h1v1h-1zM27 10h1v1h-1zM29 10h2v1h-2zM33 10h1v1h-1zM36 10h1v1h-1zM1 11h1v1h-1zM3 11h3v1h-3zM9 11h1v1h-1zM11 11h4v1h-4zM17 11h4v1h-4zM23 11h2v1h-2zM26 11h5v1h-5zM33 11h3v1h-3zM1 12h1v1h-1zM3 12h2v1h-2zM6 12h2v1h-2zM10 12h3v1h-3zM15 12h4v1h-4zM20 12h2v1h-2zM27 12h2v1h-2zM30 12h2v1h-2zM34 12h1v1h-1zM0 13h1v1h-1zM2 13h1v1h-1zM4 13h1v1h-1zM8 13h1v1h-1zM14 13h2v1h-2zM17 13h1v1h-1zM19 13h3v1h-3zM23 13h1v1h-1zM25 13h1v1h-1zM27 13h3v1h-3zM31 13h2v1h-2zM34 13h1v1h-1zM3 14h2v1h-2zM6 14h2v1h-2zM9 14h2v1h-2zM14 14h2v1h-2zM17 14h8v1h-8zM27 14h1v1h-1zM30 14h1v1h-1zM33 14h2v1h-2zM36 14h1v1h-1zM0 15h4v1h-4zM8 15h5v1h-5zM14 15h2v1h-2zM20 15h1v1h-1zM24 15h1v1h-1zM26 15h1v1h-1zM28 15h2v1h-2zM31 15h1v1h-1zM33 15h3v1h-3zM0 16h2v1h-2zM4 16h1v1h-1zM6 16h1v1h-1zM9 16h5v1h-5zM15 16h1v1h-1zM17 16h1v1h-1zM19 16h1v1h-1zM24 16h2v1h-2zM27 16h1v1h-1zM30 16h2v1h-2zM34 16h1v1h-1zM36 16h1v1h-1zM1 17h5v1h-5zM8 17h2v1h-2zM11 17h1v1h-1zM13 17h4v1h-4zM20 17h1v1h-1zM23 17h2v1h-2zM27 17h1v1h-1zM31 17h1v1h-1zM33 17h1v1h-1zM35 17h1v1h-1zM0 18h1v1h-1zM5 18h2v1h-2zM9 18h3v1h-3zM13 18h2v1h-2zM16 18h2v1h-2zM19 18h1v1h-1zM22 18h2v1h-2zM25 18h1v1h-1zM27 18h1v1h-1zM31 18h1v1h-1zM33 18h1v1h-1zM36 18h1v1h-1zM0 19h1v1h-1zM2 19h1v1h-1zM8 19h4v1h-4zM16 19h2v1h-2zM19 19h2v1h-2zM22 19h1v1h-1zM24 19h2v1h-2zM29 19h1v1h-1zM33 19h1v1h-1zM35 19h1v1h-1zM0 20h1v1h-1zM2 20h2v1h-2zM6 20h1v1h-1zM8 20h2v1h-2zM13 20h2v1h-2zM20 20h1v1h-1zM23 20h1v1h-1zM25 20h6v1h-6zM32 20h2v1h-2zM1 21h1v1h-1zM3 21h1v1h-1zM5 21h1v1h-1zM7 21h3v1h-3zM11 21h1v1h-1zM14 21h2v1h-2zM17 21h3v1h-3zM21 21h1v1h-1zM23 21h2v1h-2zM27 21h2v1h-2zM31 21h2v1h-2zM34 21h1v1h-1zM2 22h5v1h-5zM11 22h1v1h-1zM14 22h1v1h-1zM16 22h1v1h-1zM18 22h2v1h-2zM22 22h1v1h-1zM24 22h1v1h-1zM26 22h2v1h-2zM30 22h1v1h-1zM32 22h1v1h-1zM34 22h1v1h-1zM36 22h1v1h-1zM0 23h1v1h-1zM2 23h2v1h-2zM5 23h1v1h-1zM7 23h1v1h-1zM10 23h1v1h-1zM14 23h1v1h-1zM17 23h4v1h-4zM22 23h2v1h-2zM26 23h3v1h-3zM30 23h2v1h-2zM33 23h3v1h-3zM0 24h1v1h-1zM5 24h2v1h-2zM8 24h3v1h-3zM12 24h2v1h-2zM15 24h1v1h-1zM19 24h1v1h-1zM21 24h2v1h-2zM24 24h1v1h-1zM26 24h1v1h-1zM28 24h1v1h-1zM30 24h1v1h-1zM33 24h1v1h-1zM0 25h2v1h-2zM4 25h2v1h-2zM7 25h2v1h-2zM10 25h1v1h-1zM12 25h1v1h-1zM14 25h1v1h-1zM16 25h1v1h-1zM18 25h2v1h-2zM21 25h1v1h-1zM25 25h4v1h-4zM32 25h3v1h-3zM0 26h3v1h-3zM4 26h4v1h-4zM11 26h2v1h-2zM14 26h2v1h-2zM18 26h2v1h-2zM23 26h2v1h-2zM26 26h2v1h-2zM30 26h1v1h-1zM32 26h1v1h-1zM36 26h1v1h-1zM0 27h1v1h-1zM3 27h3v1h-3zM10 27h1v1h-1zM13 27h2v1h-2zM16 27h1v1h-1zM22 27h2v1h-2zM29 27h1v1h-1zM32 27h5v1h-5zM0 28h1v1h-1zM2 28h1v1h-1zM4 28h6v1h-6zM11 28h2v1h-2zM14 28h1v1h-1zM17 28h1v1h-1zM20 28h1v1h-1zM24 28h2v1h-2zM28 28h7v1h-7zM8 29h3v1h-3zM13 29h1v1h-1zM15 29h1v1h-1zM17 29h1v1h-1zM19 29h4v1h-4zM26 29h1v1h-1zM28 29h1v1h-1zM32 29h3v1h-3zM0 30h7v1h-7zM8 30h2v1h-2zM13 30h3v1h-3zM17 30h1v1h-1zM21 30h1v1h-1zM23 30h1v1h-1zM25 30h2v1h-2zM28 30h1v1h-1zM30 30h1v1h-1zM32 30h3v1h-3zM36 30h1v1h-1zM0 31h1v1h-1zM6 31h1v1h-1zM9 31h2v1h-2zM14 31h1v1h-1zM16 31h1v1h-1zM19 31h1v1h-1zM22 31h1v1h-1zM24 31h2v1h-2zM27 31h2v1h-2zM32 31h2v1h-2zM35 31h1v1h-1zM0 32h1v1h-1zM2 32h3v1h-3zM6 32h1v1h-1zM8 32h5v1h-5zM20 32h1v1h-1zM22 32h1v1h-1zM24 32h1v1h-1zM26 32h7v1h-7zM35 32h2v1h-2zM0 33h1v1h-1zM2 33h3v1h-3zM6 33h1v1h-1zM8 33h5v1h-5zM14 33h1v1h-1zM16 33h3v1h-3zM20 33h3v1h-3zM24 33h4v1h-4zM30 33h1v1h-1zM0 34h1v1h-1zM2 34h3v1h-3zM6 34h1v1h-1zM10 34h1v1h-1zM12 34h1v1h-1zM16 34h4v1h-4zM23 34h1v1h-1zM25 34h1v1h-1zM27 34h1v1h-1zM31 34h2v1h-2zM35 34h2v1h-2zM0 35h1v1h-1zM6 35h1v1h-1zM9 35h3v1h-3zM17 35h3v1h-3zM21 35h2v1h-2zM26 35h1v1h-1zM30 35h7v1h-7zM0 36h7v1h-7zM9 36h1v1h-1zM11 36h2v1h-2zM14 36h1v1h-1zM16 36h1v1h-1zM19 36h1v1h-1zM21 36h2v1h-2zM24 36h1v1h-1zM28 36h3v1h-3zM33 36h1v1h-1zM36 36h1v1h-1z"/></svg>