<svg xmlns="http://www.w3.org/2000/svg" viewBox="0 0 37 37" shape-rendering="crispEdges"><path fill="#4a1f25" d="M0 0h7v1h-7zM15 0h2v1h-2zM18 0h2v1h-2zM22 0h1v1h-1zM24 0h2v1h-2zM28 0h1v1h-1zM30 0h7v1h-7zM0 1h1v1h-1zM6 1h1v1h-1zM8 1h5v1h-5zM14 1h1v1h-1zM17 1h2v1h-2zM21 1h1v1h-1zM24 1h2v1h-2zM30 1h1v1h-1zM36 1h1v1h-1zM0 2h1v1h-1zM2 2h3v1h-3zM6 2h1v1h-1zM8 2h1v1h-1zM14 2h2v1h-2zM17 2h1v1h-1zM20 2h1v1h-1zM22 2h5v1h-5zM30 2h1v1h-1zM32 2h3v1h-3zM36 2h1v1h-1zM0 3h1v1h-1zM2 3h3v1h-3zM6 3h1v1h-1zM8 3h1v1h-1zM10 3h1v1h-1zM13 3h1v1h-1zM16 3h1v1h-1zM18 3h1v1h-1zM20 3h2v1h-2zM23 3h1v1h-1zM25 3h1v1h-1zM27 3h1v1h-1zM30 3h1v1h-1zM32 3h3v1h-3zM36 3h1v1h-1zM0 4h1v1h-1zM2 4h3v1h-3zM6 4h1v1h-1zM8 4h1v1h-1zM11 4h1v1h-1zM13 4h1v1h-1zM16 4h1v1h-1zM21 4h1v1h-1zM23 4h1v1h-1zM25 4h2v1h-2zM28 4h1v1h-1zM30 4h1v1h-1zM32 4h3v1h-3zM36 4h1v1h-1zM0 5h1v1h-1zM6 5h1v1h-1zM8 5h1v1h-1zM12 5h3v1h-3zM16 5h2v1h-2zM19 5h1v1h-1zM22 5h2v1h-2zM26 5h1v1h-1zM28 5h1v1h-1zM30 5h1v1h-1zM36 5h1v1h-1zM0 6h7v1h-7zM8 6h1v1h-1zM10 6h1v1h-1zM12 6h1v1h-1zM14 6h1v1h-1zM16 6h1v1h-1zM18 6h1v1h-1zM20 6h1v1h-1zM22 6h1v1h-1zM24 6h1v1h-1zM26 6h1v1h-1zM28 6h1v1h-1zM30 6h7v1h-7zM10 7h2v1h-2zM14 7h1v1h-1zM16 7h1v1h-1zM19 7h4v1h-4zM24 7h1v1h-1zM26 7h3v1h-3zM2 8h1v1h-1zM5 8h5v1h-5zM11 8h1v1h-1zM13 8h2v1h-2zM16 8h2v1h-2zM19 8h1v1h-1zM21 8h2v1h-2zM29 8h1v1h-1zM31 8h5v1h-5zM2 9h4v1h-4zM8 9h3v1h-3zM13 9h2v1h-2zM16 9h1v1h-1zM18 9h1v1h-1zM20 9h1v1h-1zM22 9h1v1h-1zM25 9h1v1h-1zM27 9h2v1h-2zM30 9h1v1h-1zM36 9h1v1h-1zM1 10h2v1h-2zM4 10h1v1h-1zM6 10h3v1h-3zM10 10h1v1h-1zM12 10h1v1h-1zM14 10h1v1h-1zM17 10h1v1h-1zM19 10h3v1h-3zM23 10h2v1h-2zM27 10h4v1h-4zM32 10h1v1h-1zM35 10h2v1h-2zM2 11h2v1h-2zM5 11h1v1h-1zM7 11h1v1h-1zM10 11h1v1h-1zM13 11h1v1h-1zM15 11h2v1h-2zM18 11h2v1h-2zM26 11h2v1h-2zM31 11h1v1h-1zM33 11h1v1h-1zM35 11h1v1h-1zM1 12h1v1h-1zM4 12h1v1h-1zM6 12h2v1h-2zM12 12h2v1h-2zM15 12h2v1h-2zM19 12h1v1h-1zM22 12h1v1h-1zM27 12h2v1h-2zM30 12h1v1h-1zM33 12h1v1h-1zM35 12h2v1h-2zM3 13h1v1h-1zM5 13h1v1h-1zM7 13h1v1h-1zM10 13h1v1h-1zM13 13h1v1h-1zM16 13h2v1h-2zM19 13h1v1h-1zM21 13h4v1h-4zM27 13h5v1h-5zM34 13h1v1h-1zM36 13h1v1h-1zM0 14h1v1h-1zM2 14h1v1h-1zM5 14h2v1h-2zM11 14h1v1h-1zM16 14h4v1h-4zM22 14h2v1h-2zM26 14h2v1h-2zM30 14h1v1h-1zM32 14h3v1h-3zM36 14h1v1h-1zM0 15h3v1h-3zM4 15h2v1h-2zM7 15h2v1h-2zM14 15h1v1h-1zM17 15h1v1h-1zM22 15h2v1h-2zM26 15h1v1h-1zM28 15h2v1h-2zM32 15h2v1h-2zM36 15h1v1h-1zM0 16h1v1h-1zM2 16h2v1h-2zM5 16h2v1h-2zM8 16h3v1h-3zM12 16h2v1h-2zM16 16h4v1h-4zM22 16h2v1h-2zM26 16h3v1h-3zM30 16h1v1h-1zM35 16h2v1h-2zM0 17h1v1h-1zM2 17h2v1h-2zM9 17h1v1h-1zM12 17h2v1h-2zM15 17h4v1h-4zM20 17h4v1h-4zM25 17h7v1h-7zM36 17h1v1h-1zM2 18h1v1h-1zM5 18h2v1h-2zM8 18h1v1h-1zM10 18h1v1h-1zM13 18h4v1h-4zM19 18h4v1h-4zM24 18h1v1h-1zM27 18h1v1h-1zM30 18h3v1h-3zM34 18h1v1h-1zM36 18h1v1h-1zM2 19h4v1h-4zM9 19h1v1h-1zM11 19h4v1h-4zM18 19h1v1h-1zM20 19h1v1h-1zM24 19h1v1h-1zM28 19h1v1h-1zM32 19h2v1h-2zM3 20h1v1h-1zM5 20h2v1h-2zM10 20h3v1h-3zM14 20h1v1h-1zM16 20h2v1h-2zM20 20h1v1h-1zM22 20h1v1h-1zM24 20h1v1h-1zM27 20h2v1h-2zM30 20h1v1h-1zM0 21h2v1h-2zM3 21h1v1h-1zM5 21h1v1h-1zM7 21h3v1h-3zM12 21h3v1h-3zM20 21h1v1h-1zM22 21h1v1h-1zM25 21h1v1h-1zM27 21h1v1h-1zM30 21h2v1h-2zM33 21h2v1h-2zM36 21h1v1h-1zM1 22h2v1h-2zM6 22h2v1h-2zM15 22h1v1h-1zM18 22h1v1h-1zM20 22h2v1h-2zM23 22h1v1h-1zM25 22h1v1h-1zM27 22h2v1h-2zM31 22h3v1h-3zM36 22h1v1h-1zM2 23h4v1h-4zM7 23h4v1h-4zM16 23h2v1h-2zM22 23h2v1h-2zM26 23h2v1h-2zM29 23h1v1h-1zM31 23h1v1h-1zM33 23h1v1h-1zM35 23h2v1h-2zM1 24h2v1h-2zM5 24h6v1h-6zM18 24h1v1h-1zM21 24h1v1h-1zM24 24h1v1h-1zM30 24h2v1h-2zM33 24h1v1h-1zM2 25h2v1h-2zM7 25h2v1h-2zM12 25h2v1h-2zM16 25h2v1h-2zM20 25h2v1h-2zM27 25h2v1h-2zM30 25h2v1h-2zM35 25h2v1h-2zM0 26h3v1h-3zM6 26h1v1h-1zM8 26h3v1h-3zM14 26h3v1h-3zM19 26h1v1h-1zM23 26h1v1h-1zM25 26h3v1h-3zM29 26h2v1h-2zM34 26h3v1h-3zM4 27h2v1h-2zM9 27h2v1h-2zM15 27h3v1h-3zM19 27h1v1h-1zM23 27h2v1h-2zM26 27h2v1h-2zM29 27h2v1h-2zM32 27h2v1h-2zM35 27h1v1h-1zM0 28h5v1h-5zM6 28h2v1h-2zM9 28h4v1h-4zM14 28h1v1h-1zM16 28h1v1h-1zM20 28h1v1h-1zM22 28h1v1h-1zM24 28h1v1h-1zM27 28h7v1h-7zM35 28h2v1h-2zM8 29h4v1h-4zM13 29h2v1h-2zM16 29h1v1h-1zM18 29h1v1h-1zM21 29h1v1h-1zM23 29h1v1h-1zM27 29h2v1h-2zM32 29h2v1h-2zM36 29h1v1h-1zM0 30h7v1h-7zM8 30h1v1h-1zM11 30h1v1h-1zM14 30h2v1h-2zM17 30h1v1h-1zM21 30h3v1h-3zM25 30h1v1h-1zM28 30h1v1h-1zM30 30h1v1h-1zM32 30h3v1h-3zM36 30h1v1h-1zM0 31h1v1h-1zM6 31h1v1h-1zM8 31h3v1h-3zM13 31h1v1h-1zM15 31h1v1h-1zM17 31h3v1h-3zM23 31h2v1h-2zM27 31h2v1h-2zM32 31h2v1h-2zM35 31h2v1h-2zM0 32h1v1h-1zM2 32h3v1h-3zM6 32h1v1h-1zM9 32h1v1h-1zM11 32h2v1h-2zM14 32h3v1h-3zM18 32h2v1h-2zM21 32h2v1h-2zM24 32h1v1h-1zM26 32h7v1h-7zM35 32h1v1h-1zM0 33h1v1h-1zM2 33h3v1h-3zM6 33h1v1h-1zM14 33h1v1h-1zM16 33h1v1h-1zM18 33h1v1h-1zM21 33h3v1h-3zM25 33h2v1h-2zM32 33h1v1h-1zM36 33h1v1h-1zM0 34h1v1h-1zM2 34h3v1h-3zM6 34h1v1h-1zM8 34h1v1h-1zM10 34h1v1h-1zM12 34h1v1h-1zM16 34h4v1h-4zM23 34h5v1h-5zM32 34h2v1h-2zM35 34h2v1h-2zM0 35h1v1h-1zM6 35h1v1h-1zM12 35h2v1h-2zM15 35h5v1h-5zM21 35h3v1h-3zM26 35h1v1h-1zM28 35h1v1h-1zM31 35h3v1h-3zM0 36h7v1h-7zM10 36h1v1h-1zM12 36h1v1h-1zM15 36h3v1h-3zM20 36h5v1h-5zM28 36h1v1h-1zM32 36h2v1h-2zM36 36h1v1h-1z"/></svg>